<?xml version="1.0" encoding="UTF-8"?>
<!DOCTYPE svg PUBLIC "-//W3C//DTD SVG 1.1//EN" "http://www.w3.org/Graphics/SVG/1.1/DTD/svg11.dtd">
<!-- Creator: CorelDRAW 2021 (64-Bit) -->
<svg xmlns="http://www.w3.org/2000/svg" xml:space="preserve" width="32.2492mm" height="32.5422mm" version="1.1" style="shape-rendering:geometricPrecision; text-rendering:geometricPrecision; image-rendering:optimizeQuality; fill-rule:evenodd; clip-rule:evenodd"
viewBox="0 0 3224.92 3254.22"
 xmlns:xlink="http://www.w3.org/1999/xlink"
 xmlns:xodm="http://www.corel.com/coreldraw/odm/2003">
 <defs>
  <style type="text/css">
   <![CDATA[
    .fil0 {fill:white}
   ]]>
  </style>
 </defs>
 <g id="Capa_x0020_1">
  <metadata id="CorelCorpID_0Corel-Layer"/>
  <path class="fil0" d="M2872.27 454.18c-47.35,-55.71 -153.76,-19.1 -188.36,56.76 -62.44,84.26 1.01,181.12 73.13,234.44 19.67,114.44 16.88,398.89 18.19,533.88l-657.09 209.76 -201.2 -144.48 444.73 -375.2 21.18 -624.04c77.89,-115.82 234.43,-310.32 -33.32,-338.34 -237.2,25.97 -96.52,212.25 -44.01,337.76 16.42,64.19 3.71,479.46 -0.63,570.01l-313.15 284.81c-38.6,-243.97 -77.84,-446.28 -369.77,-463.1 -306.42,-17.66 -389.7,200.29 -400.64,459.28l-330.78 -265.47c-2.94,-150.45 -1.84,-451.72 2.9,-596.42 68.22,-90.61 192.54,-168.2 59.6,-297.86 -81.86,-37.74 -177.74,-57.25 -223.07,70.65 -42.58,120.15 47.49,150.69 104.6,224.72l-1.39 635.79 440.17 352.09 -169.39 168.47 -680.04 -195.9c4.27,-137.37 -11.52,-345.21 1.51,-466.9 46.71,-176.53 226.88,-149.32 87.83,-343.23 -152.99,-126.55 -351.8,42.47 -142.19,268.15l-1.58 579.85 405.18 117.05 183.11 94.42c165.82,-7.48 299.77,-47.33 426.27,-191.54 -476.42,-738.74 911.83,-708.58 430.78,-2.09 276.3,244.84 363.2,198.95 567.52,118.98l455.6 -126.01 2.94 -583.48c129.39,-105.66 153.98,-204.69 31.37,-302.81zm-70.94 77.43c33.12,0 59.97,29 59.97,64.77 0,35.77 -26.85,64.77 -59.97,64.77 -33.12,0 -59.97,-29 -59.97,-64.77 0,-35.77 26.85,-64.77 59.97,-64.77zm-448.24 -446.61c33.12,0 59.97,29 59.97,64.77 0,35.77 -26.85,64.77 -59.97,64.77 -33.12,0 -59.97,-29 -59.97,-64.77 0,-35.77 26.85,-64.77 59.97,-64.77zm-1943.77 426.73c33.12,0 59.97,29 59.97,64.77 0,35.77 -26.85,64.77 -59.97,64.77 -33.12,0 -59.97,-29 -59.97,-64.77 0,-35.77 26.85,-64.77 59.97,-64.77zm450.54 -426.05c33.12,0 59.97,29 59.97,64.77 0,35.77 -26.85,64.77 -59.97,64.77 -33.12,0 -59.97,-29 -59.97,-64.77 0,-35.77 26.85,-64.77 59.97,-64.77z"/>
  <path class="fil0" d="M940.71 2388.1c19.5,-180.96 -52.68,-244.11 -26.8,-476.31 -43.2,-73.84 -54.27,-42.46 -174.15,-34.58l-410.87 54.04c-52.45,135.52 -118.98,456.53 -169.74,538.58 -61.24,98.97 -145.72,70.71 -162.15,195.9 -20.23,154.11 149.44,157.99 213.42,132.21 226.99,-90.38 30.17,-223.9 22.33,-332.7 110.33,-381.83 77.08,-543.41 610.72,-520.54l34.76 387.63c-441.02,95.09 -312.36,50.93 -397.17,494.97 -47.28,247.56 -160.71,111.27 -157.95,291.48 2.53,164.38 148.64,155.23 260.21,90.36 89.35,-366.81 -167.78,42.44 28.24,-750.41l329.15 -70.63zm-795.98 214.33c33.12,0 59.97,29 59.97,64.77 0,35.77 -26.85,64.77 -59.97,64.77 -33.12,0 -59.97,-29 -59.97,-64.77 0,-35.77 26.85,-64.77 59.97,-64.77zm311.13 441.3c33.12,0 59.97,29 59.97,64.77 0,35.77 -26.85,64.77 -59.97,64.77 -33.12,0 -59.97,-29 -59.97,-64.77 0,-35.77 26.85,-64.77 59.97,-64.77z"/>
  <path class="fil0" d="M2247.36 2320.73l26.47 98.27c116.16,-30.26 199.28,-5.33 316.37,45.03 184.31,731.6 -20.63,464.58 11.4,688.92 15.24,106.71 110.55,130.93 199.49,88.35 208.89,-100 -36.16,-259.47 -69,-353.33 -50.04,-143.03 -31.67,-322.92 -103.85,-490.82l-304.35 -62.84 41.87 -401.72 471.96 51.41c25.47,168.03 112.89,328.87 134.34,487.87 7.8,57.82 -140.21,450.69 157.43,329.7 238.6,-97 -63.6,-259.65 -107.77,-377.41 -58.41,-155.73 -74.08,-353.78 -159.28,-480.96l-565.78 -75.77 -49.3 453.3zm485.19 733.7c33.12,0 59.97,29 59.97,64.77 0,35.77 -26.85,64.77 -59.97,64.77 -33.12,0 -59.97,-29 -59.97,-64.77 0,-35.77 26.85,-64.77 59.97,-64.77zm341.46 -434.79c33.12,0 59.97,29 59.97,64.77 0,35.77 -26.85,64.77 -59.97,64.77 -33.12,0 -59.97,-29 -59.97,-64.77 0,-35.77 26.85,-64.77 59.97,-64.77z"/>
  <path class="fil0" d="M1414.95 2343.26c448.6,212.75 874.96,-401.91 223.71,-710.44l-16.65 -390.82 2.31 -5.11c52.87,-11.07 93.58,-60.52 95.32,-121.02 2.01,-69.95 -48.87,-128.16 -113.63,-130.02 -64.77,-1.86 -118.9,53.34 -120.91,123.29 -1.77,61.5 37.35,113.93 90.85,126.96l1.55 5.4 -6.21 384.32c-350.13,159.82 -531.66,459.32 -156.34,717.44z"/>
  <path class="fil0" d="M2187.89 2525.09c12.41,-71.72 25.25,-55.17 -47.73,-39.79 -308.88,380.57 -750.22,328.03 -1075.31,-6.33 -78.99,0 -66.73,-21.11 -49.93,52.41 357.99,372.62 821.48,365.19 1172.97,-6.29z"/>
 </g>
</svg>
